<mxfile host="app.diagrams.net" modified="2023-06-13T11:01:03.150Z" agent="Mozilla/5.0 (Windows NT 10.0; Win64; x64; rv:109.0) Gecko/20100101 Firefox/112.0" etag="Ulkc2tNjGUpePQ98toGu" version="21.3.8" type="github">
  <diagram name="Page-1" id="c37626ed-c26b-45fb-9056-f9ebc6bb27b6">
    <mxGraphModel dx="2390" dy="1257" grid="1" gridSize="10" guides="1" tooltips="1" connect="1" arrows="1" fold="1" page="1" pageScale="1" pageWidth="1100" pageHeight="850" background="none" math="0" shadow="0">
      <root>
        <mxCell id="0" />
        <mxCell id="1" parent="0" />
        <mxCell id="lNO6-AL4-iL3AVNLIPHH-6" value="" style="group" vertex="1" connectable="0" parent="1">
          <mxGeometry x="270" y="570" width="280" height="160" as="geometry" />
        </mxCell>
        <mxCell id="lNO6-AL4-iL3AVNLIPHH-2" value="" style="rounded=0;whiteSpace=wrap;html=1;strokeColor=none;fillColor=#000000;fillStyle=solid;" vertex="1" parent="lNO6-AL4-iL3AVNLIPHH-6">
          <mxGeometry x="80" y="40" width="120" height="80" as="geometry" />
        </mxCell>
        <mxCell id="lNO6-AL4-iL3AVNLIPHH-3" value="" style="rounded=1;whiteSpace=wrap;html=1;arcSize=50;imageHeight=24;rotation=90;strokeColor=none;fillColor=#0D0D0D;" vertex="1" parent="lNO6-AL4-iL3AVNLIPHH-6">
          <mxGeometry x="-40" y="40" width="160" height="80" as="geometry" />
        </mxCell>
        <mxCell id="lNO6-AL4-iL3AVNLIPHH-4" value="" style="rounded=1;whiteSpace=wrap;html=1;arcSize=50;imageHeight=24;rotation=90;strokeColor=none;fillColor=#0D0D0D;" vertex="1" parent="lNO6-AL4-iL3AVNLIPHH-6">
          <mxGeometry x="160" y="40" width="160" height="80" as="geometry" />
        </mxCell>
        <mxCell id="lNO6-AL4-iL3AVNLIPHH-5" value="" style="rounded=0;whiteSpace=wrap;html=1;fillColor=#000000;strokeColor=none;" vertex="1" parent="lNO6-AL4-iL3AVNLIPHH-6">
          <mxGeometry x="97.5" y="20" width="85" height="20" as="geometry" />
        </mxCell>
        <mxCell id="lNO6-AL4-iL3AVNLIPHH-7" value="" style="group" vertex="1" connectable="0" parent="1">
          <mxGeometry x="380" y="1110" width="280" height="160" as="geometry" />
        </mxCell>
        <mxCell id="lNO6-AL4-iL3AVNLIPHH-8" value="" style="rounded=0;whiteSpace=wrap;html=1;strokeColor=none;fillColor=#000000;fillStyle=solid;" vertex="1" parent="lNO6-AL4-iL3AVNLIPHH-7">
          <mxGeometry x="80" y="40" width="120" height="80" as="geometry" />
        </mxCell>
        <mxCell id="lNO6-AL4-iL3AVNLIPHH-9" value="" style="rounded=1;whiteSpace=wrap;html=1;arcSize=50;imageHeight=24;rotation=90;strokeColor=none;fillColor=#0D0D0D;" vertex="1" parent="lNO6-AL4-iL3AVNLIPHH-7">
          <mxGeometry x="-40" y="40" width="160" height="80" as="geometry" />
        </mxCell>
        <mxCell id="lNO6-AL4-iL3AVNLIPHH-10" value="" style="rounded=1;whiteSpace=wrap;html=1;arcSize=50;imageHeight=24;rotation=90;strokeColor=none;fillColor=#0D0D0D;" vertex="1" parent="lNO6-AL4-iL3AVNLIPHH-7">
          <mxGeometry x="160" y="40" width="160" height="80" as="geometry" />
        </mxCell>
        <mxCell id="lNO6-AL4-iL3AVNLIPHH-11" value="" style="rounded=0;whiteSpace=wrap;html=1;fillColor=#000000;strokeColor=none;" vertex="1" parent="lNO6-AL4-iL3AVNLIPHH-7">
          <mxGeometry x="97.5" y="20" width="85" height="20" as="geometry" />
        </mxCell>
        <mxCell id="lNO6-AL4-iL3AVNLIPHH-12" value="" style="group" vertex="1" connectable="0" parent="1">
          <mxGeometry x="780" y="265" width="280" height="160" as="geometry" />
        </mxCell>
        <mxCell id="lNO6-AL4-iL3AVNLIPHH-13" value="" style="rounded=0;whiteSpace=wrap;html=1;strokeColor=none;fillColor=#000000;fillStyle=solid;" vertex="1" parent="lNO6-AL4-iL3AVNLIPHH-12">
          <mxGeometry x="80" y="40" width="120" height="80" as="geometry" />
        </mxCell>
        <mxCell id="lNO6-AL4-iL3AVNLIPHH-14" value="" style="rounded=1;whiteSpace=wrap;html=1;arcSize=50;imageHeight=24;rotation=90;strokeColor=none;fillColor=#0D0D0D;" vertex="1" parent="lNO6-AL4-iL3AVNLIPHH-12">
          <mxGeometry x="-40" y="40" width="160" height="80" as="geometry" />
        </mxCell>
        <mxCell id="lNO6-AL4-iL3AVNLIPHH-15" value="" style="rounded=1;whiteSpace=wrap;html=1;arcSize=50;imageHeight=24;rotation=90;strokeColor=none;fillColor=#0D0D0D;" vertex="1" parent="lNO6-AL4-iL3AVNLIPHH-12">
          <mxGeometry x="160" y="40" width="160" height="80" as="geometry" />
        </mxCell>
        <mxCell id="lNO6-AL4-iL3AVNLIPHH-16" value="" style="rounded=0;whiteSpace=wrap;html=1;fillColor=#000000;strokeColor=none;" vertex="1" parent="lNO6-AL4-iL3AVNLIPHH-12">
          <mxGeometry x="97.5" y="20" width="85" height="20" as="geometry" />
        </mxCell>
        <mxCell id="lNO6-AL4-iL3AVNLIPHH-18" value="" style="group;movable=1;resizable=1;rotatable=1;deletable=1;editable=1;locked=0;connectable=1;" vertex="1" connectable="0" parent="1">
          <mxGeometry x="1380" y="580" width="280" height="160" as="geometry" />
        </mxCell>
        <mxCell id="lNO6-AL4-iL3AVNLIPHH-19" value="" style="rounded=0;whiteSpace=wrap;html=1;strokeColor=none;fillColor=#000000;fillStyle=solid;" vertex="1" parent="lNO6-AL4-iL3AVNLIPHH-18">
          <mxGeometry x="80" y="40" width="120" height="80" as="geometry" />
        </mxCell>
        <mxCell id="lNO6-AL4-iL3AVNLIPHH-20" value="" style="rounded=1;whiteSpace=wrap;html=1;arcSize=50;imageHeight=24;rotation=90;strokeColor=none;fillColor=#0D0D0D;" vertex="1" parent="lNO6-AL4-iL3AVNLIPHH-18">
          <mxGeometry x="-40" y="40" width="160" height="80" as="geometry" />
        </mxCell>
        <mxCell id="lNO6-AL4-iL3AVNLIPHH-21" value="" style="rounded=1;whiteSpace=wrap;html=1;arcSize=50;imageHeight=24;rotation=90;strokeColor=none;fillColor=#0D0D0D;" vertex="1" parent="lNO6-AL4-iL3AVNLIPHH-18">
          <mxGeometry x="160" y="40" width="160" height="80" as="geometry" />
        </mxCell>
        <mxCell id="lNO6-AL4-iL3AVNLIPHH-22" value="" style="rounded=0;whiteSpace=wrap;html=1;fillColor=#000000;strokeColor=none;" vertex="1" parent="lNO6-AL4-iL3AVNLIPHH-18">
          <mxGeometry x="97.5" y="20" width="85" height="20" as="geometry" />
        </mxCell>
        <mxCell id="lNO6-AL4-iL3AVNLIPHH-28" value="" style="sketch=0;pointerEvents=1;shadow=0;dashed=0;html=1;strokeColor=none;fillColor=#000000;labelPosition=center;verticalLabelPosition=bottom;verticalAlign=top;align=center;outlineConnect=0;shape=mxgraph.veeam2.laptop;" vertex="1" parent="1">
          <mxGeometry x="1120" y="970" width="652" height="372" as="geometry" />
        </mxCell>
        <mxCell id="lNO6-AL4-iL3AVNLIPHH-29" value="" style="endArrow=classic;startArrow=classic;html=1;rounded=0;strokeWidth=5;entryX=1;entryY=1;entryDx=0;entryDy=0;exitX=0.5;exitY=0;exitDx=0;exitDy=0;" edge="1" parent="1" source="lNO6-AL4-iL3AVNLIPHH-11" target="lNO6-AL4-iL3AVNLIPHH-20">
          <mxGeometry width="50" height="50" relative="1" as="geometry">
            <mxPoint x="550" y="1100" as="sourcePoint" />
            <mxPoint x="1360" y="670" as="targetPoint" />
          </mxGeometry>
        </mxCell>
        <mxCell id="lNO6-AL4-iL3AVNLIPHH-30" value="" style="endArrow=classic;startArrow=classic;html=1;rounded=0;strokeWidth=5;entryX=0.5;entryY=1;entryDx=0;entryDy=0;exitX=0.5;exitY=0;exitDx=0;exitDy=0;" edge="1" parent="1" source="lNO6-AL4-iL3AVNLIPHH-11" target="lNO6-AL4-iL3AVNLIPHH-2">
          <mxGeometry width="50" height="50" relative="1" as="geometry">
            <mxPoint x="520" y="1100" as="sourcePoint" />
            <mxPoint x="410" y="760" as="targetPoint" />
          </mxGeometry>
        </mxCell>
        <mxCell id="lNO6-AL4-iL3AVNLIPHH-31" value="" style="endArrow=classic;startArrow=classic;html=1;rounded=0;strokeWidth=5;entryX=0.5;entryY=0;entryDx=0;entryDy=0;exitX=0.5;exitY=1;exitDx=0;exitDy=0;" edge="1" parent="1" source="lNO6-AL4-iL3AVNLIPHH-13" target="lNO6-AL4-iL3AVNLIPHH-5">
          <mxGeometry width="50" height="50" relative="1" as="geometry">
            <mxPoint x="900" y="430" as="sourcePoint" />
            <mxPoint x="420" y="560" as="targetPoint" />
          </mxGeometry>
        </mxCell>
        <mxCell id="lNO6-AL4-iL3AVNLIPHH-32" value="" style="endArrow=classic;startArrow=classic;html=1;rounded=0;strokeWidth=5;exitX=0.5;exitY=1;exitDx=0;exitDy=0;entryX=0.5;entryY=0;entryDx=0;entryDy=0;" edge="1" parent="1" source="lNO6-AL4-iL3AVNLIPHH-13" target="lNO6-AL4-iL3AVNLIPHH-11">
          <mxGeometry width="50" height="50" relative="1" as="geometry">
            <mxPoint x="910" y="440" as="sourcePoint" />
            <mxPoint x="530" y="1100" as="targetPoint" />
          </mxGeometry>
        </mxCell>
        <mxCell id="lNO6-AL4-iL3AVNLIPHH-33" value="" style="endArrow=classic;startArrow=classic;html=1;rounded=0;strokeWidth=5;entryX=0.5;entryY=0;entryDx=0;entryDy=0;" edge="1" parent="1" source="lNO6-AL4-iL3AVNLIPHH-28" target="lNO6-AL4-iL3AVNLIPHH-10">
          <mxGeometry width="50" height="50" relative="1" as="geometry">
            <mxPoint x="1140" y="1350" as="sourcePoint" />
            <mxPoint x="680" y="1270" as="targetPoint" />
          </mxGeometry>
        </mxCell>
        <mxCell id="lNO6-AL4-iL3AVNLIPHH-34" value="" style="endArrow=classic;startArrow=classic;html=1;rounded=0;strokeWidth=5;entryX=0.5;entryY=1;entryDx=0;entryDy=0;" edge="1" parent="1" source="lNO6-AL4-iL3AVNLIPHH-28" target="lNO6-AL4-iL3AVNLIPHH-19">
          <mxGeometry width="50" height="50" relative="1" as="geometry">
            <mxPoint x="560" y="1110" as="sourcePoint" />
            <mxPoint x="1546" y="700" as="targetPoint" />
          </mxGeometry>
        </mxCell>
        <mxCell id="lNO6-AL4-iL3AVNLIPHH-36" value="" style="endArrow=classic;startArrow=classic;html=1;rounded=0;strokeWidth=5;entryX=0.5;entryY=1;entryDx=0;entryDy=0;" edge="1" parent="1" source="lNO6-AL4-iL3AVNLIPHH-28" target="lNO6-AL4-iL3AVNLIPHH-13">
          <mxGeometry width="50" height="50" relative="1" as="geometry">
            <mxPoint x="1260" y="1000" as="sourcePoint" />
            <mxPoint x="910" y="440" as="targetPoint" />
          </mxGeometry>
        </mxCell>
        <mxCell id="lNO6-AL4-iL3AVNLIPHH-37" value="" style="endArrow=classic;startArrow=classic;html=1;rounded=0;strokeWidth=5;exitX=0;exitY=1;exitDx=0;exitDy=0;entryX=0.5;entryY=1;entryDx=0;entryDy=0;" edge="1" parent="1" source="lNO6-AL4-iL3AVNLIPHH-20" target="lNO6-AL4-iL3AVNLIPHH-13">
          <mxGeometry width="50" height="50" relative="1" as="geometry">
            <mxPoint x="1402" y="1030" as="sourcePoint" />
            <mxPoint x="940" y="430" as="targetPoint" />
          </mxGeometry>
        </mxCell>
        <mxCell id="lNO6-AL4-iL3AVNLIPHH-39" value="" style="endArrow=classic;startArrow=classic;html=1;rounded=0;strokeWidth=5;entryX=0.5;entryY=0;entryDx=0;entryDy=0;exitX=0.5;exitY=1;exitDx=0;exitDy=0;" edge="1" parent="1" source="lNO6-AL4-iL3AVNLIPHH-20" target="lNO6-AL4-iL3AVNLIPHH-4">
          <mxGeometry width="50" height="50" relative="1" as="geometry">
            <mxPoint x="1402" y="1030" as="sourcePoint" />
            <mxPoint x="920" y="450" as="targetPoint" />
          </mxGeometry>
        </mxCell>
        <mxCell id="lNO6-AL4-iL3AVNLIPHH-41" value="" style="endArrow=classic;startArrow=classic;html=1;rounded=0;strokeWidth=5;entryX=0.935;entryY=0.042;entryDx=0;entryDy=0;entryPerimeter=0;" edge="1" parent="1" source="lNO6-AL4-iL3AVNLIPHH-28" target="lNO6-AL4-iL3AVNLIPHH-4">
          <mxGeometry width="50" height="50" relative="1" as="geometry">
            <mxPoint x="1430" y="620" as="sourcePoint" />
            <mxPoint x="540" y="630" as="targetPoint" />
          </mxGeometry>
        </mxCell>
      </root>
    </mxGraphModel>
  </diagram>
</mxfile>
